# xmcd
#
# Track frame offsets:
# 150
# 11331
# 23066
# 36128
# 49942
# 63227
# 91447
# 111099
# 125798
# 143325
# 168344
# 182200
# 193224
# 207153
# 218828
# 229953
# 255393
# 272244
# 283394
#
# Disc length: 4012 seconds
#
#
# Revision: 1
# Processed by: cddbd v1.5.2PL0 Copyright (c) Steve Scherf et al.
# Submitted via: MfcCDDB 1.28 
#
DISCID=1a0faa13
DTITLE=BFF - Banda-Feliz-Festa
DYEAR=2015
DGENRE=Folk
TTITLE0=Polca callendula
TTITLE1=Valsa Arno
TTITLE2=Dobrado coroinha
TTITLE3=Valsa dos noivos
TTITLE4=Polca Batatinha
TTITLE5=Sag Dankeschon
TTITLE6=Polca Arrastape
TTITLE7=Valsa Merica
TTITLE8=Polca Amizade
TTITLE9=Valsa Rio Pequeno
TTITLE10=Xote Montanari
TTITLE11=Os cometas
TTITLE12=Valsa Monte Azul
TTITLE13=Valsa Agenor
TTITLE14=Polca Feliz
TTITLE15=Cavalo Zaino Beijinho doce
TTITLE16=Panela velha e chimarrao
TTITLE17=Moreninha linda Presente amor
TTITLE18=Polca Joao
EXTD=
EXTT0=
EXTT1=
EXTT2=
EXTT3=
EXTT4=
EXTT5=
EXTT6=
EXTT7=
EXTT8=
EXTT9=
EXTT10=
EXTT11=
EXTT12=
EXTT13=
EXTT14=
EXTT15=
EXTT16=
EXTT17=
EXTT18=
PLAYORDER=
